<?xml version="1.0" encoding="UTF-8" standalone="no"?>
<svg
   xmlns:dc="http://purl.org/dc/elements/1.1/"
   xmlns:cc="http://creativecommons.org/ns#"
   xmlns:rdf="http://www.w3.org/1999/02/22-rdf-syntax-ns#"
   xmlns:svg="http://www.w3.org/2000/svg"
   xmlns="http://www.w3.org/2000/svg"
   version="1.1"
   id="Layer_1"
   x="0px"
   y="0px"
   viewBox="0 0 616.31702 616.31702"
   xml:space="preserve"
   width="616.31702"
   height="616.31702"><metadata
   id="metadata853"><rdf:RDF><cc:Work
       rdf:about=""><dc:format>image/svg+xml</dc:format><dc:type
         rdf:resource="http://purl.org/dc/dcmitype/StillImage" /><dc:title></dc:title></cc:Work></rdf:RDF></metadata><defs
   id="defs851" />
<style
   type="text/css"
   id="style844">
	.st0{fill:#FFFFFF;}
</style>

<g
   style="fill:#ffffff"
   id="g848"><path
     d="m 308.1585,215.711 c -50.976,0 -92.446,41.473 -92.446,92.449 0,50.976 41.469,92.446 92.446,92.446 50.976,0 92.446,-41.469 92.446,-92.446 -10e-4,-50.976 -41.47,-92.449 -92.446,-92.449 m 0,154.081 c -33.984,0 -61.632,-27.647 -61.632,-61.631 0,-33.984 27.647,-61.632 61.632,-61.632 33.981,0 61.631,27.647 61.631,61.632 0.001,33.983 -27.65,61.631 -61.631,61.631"
     style="fill:#ffffff"
     id="path846" /><path
     d="m 190.5,188.314 -44.537,44.535 C 130.849,222.076 112.383,215.713 92.446,215.713 41.473,215.71 0,257.182 0,308.159 c 0,45.725 33.374,83.78 77.038,91.138 V 432.73 C 33.374,440.091 0,478.146 0,523.871 c 0,50.973 41.472,92.446 92.446,92.446 50.976,0 92.446,-41.472 92.446,-92.446 0,-45.725 -33.374,-83.78 -77.039,-91.141 v -33.433 c 43.664,-7.358 77.039,-45.412 77.039,-91.138 0,-19.937 -6.363,-38.404 -17.136,-53.517 l 44.535,-44.538 z m -36.423,335.557 c 0,33.981 -27.647,61.631 -61.631,61.631 -33.981,0 -61.632,-27.651 -61.632,-61.631 0,-33.984 27.651,-61.632 61.632,-61.632 33.984,0.001 61.631,27.648 61.631,61.632 M 92.446,369.791 c -33.981,0 -61.632,-27.647 -61.632,-61.631 0,-33.984 27.651,-61.632 61.632,-61.632 33.984,0 61.631,27.647 61.631,61.632 0,33.984 -27.647,61.631 -61.631,61.631"
     style="fill:#ffffff"
     id="path881" /><path
     id="path895"
     style="fill:#ffffff"
     d="m 425.817,428.003 44.537,-44.535 c 15.114,10.773 33.58,17.136 53.517,17.136 50.973,0.003 92.446,-41.469 92.446,-92.446 0,-45.725 -33.374,-83.78 -77.038,-91.138 v -33.433 c 43.664,-7.361 77.038,-45.416 77.038,-91.141 C 616.317,41.473 574.845,0 523.871,0 c -50.976,0 -92.446,41.472 -92.446,92.446 0,45.725 33.374,83.78 77.039,91.141 v 33.433 c -43.664,7.358 -77.039,45.412 -77.039,91.138 0,19.937 6.363,38.404 17.136,53.517 l -44.535,44.538 z M 462.24,92.446 c 0,-33.981 27.647,-61.631 61.631,-61.631 33.981,0 61.632,27.651 61.632,61.631 0,33.984 -27.651,61.632 -61.632,61.632 C 489.887,154.077 462.24,126.43 462.24,92.446 m 61.631,154.08 c 33.981,0 61.632,27.647 61.632,61.631 0,33.984 -27.651,61.632 -61.632,61.632 -33.984,0 -61.631,-27.647 -61.631,-61.632 0,-33.984 27.647,-61.631 61.631,-61.631" /><path
     id="path897"
     style="fill:#ffffff"
     d="m 188.314,425.817 44.535,44.537 c -10.773,15.114 -17.136,33.58 -17.136,53.517 -0.003,50.973 41.469,92.446 92.446,92.446 45.725,0 83.78,-33.374 91.138,-77.038 h 33.433 c 7.361,43.664 45.416,77.038 91.141,77.038 50.973,0 92.446,-41.472 92.446,-92.446 0,-50.976 -41.472,-92.446 -92.446,-92.446 -45.725,0 -83.78,33.374 -91.141,77.039 h -33.433 c -7.358,-43.664 -45.412,-77.039 -91.138,-77.039 -19.937,0 -38.404,6.363 -53.517,17.136 l -44.538,-44.535 z m 335.557,36.423 c 33.981,0 61.631,27.647 61.631,61.631 0,33.981 -27.651,61.632 -61.631,61.632 -33.984,0 -61.632,-27.651 -61.632,-61.632 0.001,-33.984 27.648,-61.631 61.632,-61.631 m -154.08,61.631 c 0,33.981 -27.647,61.632 -61.631,61.632 -33.984,0 -61.632,-27.651 -61.632,-61.632 0,-33.984 27.647,-61.631 61.632,-61.631 33.984,0 61.631,27.647 61.631,61.631" /><path
     id="path899"
     style="fill:#ffffff"
     d="m 428.003,190.5 -44.535,-44.537 c 10.773,-15.114 17.136,-33.58 17.136,-53.517 C 400.607,41.473 359.135,0 308.158,0 262.433,0 224.378,33.374 217.02,77.038 H 183.587 C 176.226,33.374 138.171,0 92.446,0 41.473,0 0,41.472 0,92.446 c 0,50.976 41.472,92.446 92.446,92.446 45.725,0 83.78,-33.374 91.141,-77.039 h 33.433 c 7.358,43.664 45.412,77.039 91.138,77.039 19.937,0 38.404,-6.363 53.517,-17.136 l 44.538,44.535 z M 92.446,154.077 c -33.981,0 -61.631,-27.647 -61.631,-61.631 0,-33.981 27.651,-61.632 61.631,-61.632 33.984,0 61.632,27.651 61.632,61.632 -0.001,33.984 -27.648,61.631 -61.632,61.631 m 154.08,-61.631 c 0,-33.981 27.647,-61.632 61.631,-61.632 33.984,0 61.632,27.651 61.632,61.632 0,33.984 -27.647,61.631 -61.632,61.631 -33.984,0 -61.631,-27.647 -61.631,-61.631" /></g></svg>
